<svg width="24" height="24" viewBox="0 0 24 24" fill="none" xmlns="http://www.w3.org/2000/svg">
    <path d="M15.25 9C15.25 10.7949 13.7949 12.25 12 12.25V13.75C14.6234 13.75 16.75 11.6234 16.75 9H15.25ZM12 12.25C10.2051 12.25 8.75 10.7949 8.75 9H7.25C7.25 11.6234 9.37665 13.75 12 13.75V12.25ZM8.75 9C8.75 7.20507 10.2051 5.75 12 5.75V4.25C9.37665 4.25 7.25 6.37665 7.25 9H8.75ZM12 5.75C13.7949 5.75 15.25 7.20507 15.25 9H16.75C16.75 6.37665 14.6234 4.25 12 4.25V5.75ZM9 16.75H15V15.25H9V16.75ZM2.75 12C2.75 6.89137 6.89137 2.75 12 2.75V1.25C6.06294 1.25 1.25 6.06294 1.25 12H2.75ZM12 2.75C17.1086 2.75 21.25 6.89137 21.25 12H22.75C22.75 6.06294 17.9371 1.25 12 1.25V2.75ZM21.25 12C21.25 14.6233 20.159 16.9905 18.4039 18.6748L19.4425 19.7571C21.4801 17.8016 22.75 15.0485 22.75 12H21.25ZM18.4039 18.6748C16.7412 20.2705 14.4858 21.25 12 21.25V22.75C14.8882 22.75 17.5117 21.61 19.4425 19.7571L18.4039 18.6748ZM15 16.75C16.576 16.75 17.8915 17.8726 18.1876 19.3621L19.6588 19.0697C19.226 16.8918 17.3055 15.25 15 15.25V16.75ZM12 21.25C9.51425 21.25 7.25884 20.2705 5.59612 18.6748L4.55751 19.7571C6.48833 21.61 9.11182 22.75 12 22.75V21.25ZM5.59612 18.6748C3.84103 16.9905 2.75 14.6233 2.75 12H1.25C1.25 15.0485 2.51989 17.8016 4.55751 19.7571L5.59612 18.6748ZM9 15.25C6.69445 15.25 4.77403 16.8918 4.3412 19.0697L5.81243 19.3621C6.10846 17.8726 7.42396 16.75 9 16.75V15.25Z" fill="#199AFE"/>
    <path d="M15 16H9.00003C7.05924 16 5.44128 17.3822 5.07684 19.2159C6.87361 20.9403 9.31306 22 12 22C14.687 22 17.1264 20.9403 18.9232 19.2159C18.5588 17.3822 16.9408 16 15 16Z" fill="#199AFE"/>
    <path d="M18.9232 19.2159L19.4425 19.7571L19.7389 19.4726L19.6588 19.0697L18.9232 19.2159ZM5.07684 19.2159L4.34123 19.0697L4.26116 19.4726L4.55754 19.7571L5.07684 19.2159ZM9.00003 16.75H15V15.25H9.00003V16.75ZM18.4039 18.6748C16.7412 20.2705 14.4858 21.25 12 21.25V22.75C14.8882 22.75 17.5117 21.61 19.4425 19.7571L18.4039 18.6748ZM15 16.75C16.5761 16.75 17.8916 17.8726 18.1876 19.3621L19.6588 19.0697C19.226 16.8918 17.3056 15.25 15 15.25V16.75ZM12 21.25C9.51428 21.25 7.25887 20.2705 5.59615 18.6748L4.55754 19.7571C6.48836 21.61 9.11185 22.75 12 22.75V21.25ZM9.00003 15.25C6.69448 15.25 4.77406 16.8918 4.34123 19.0697L5.81246 19.3621C6.10849 17.8726 7.42399 16.75 9.00003 16.75V15.25Z" fill="#199AFE"/>
    <path d="M15.9999 9C15.9999 11.2091 14.2091 13 11.9999 13C9.7908 13 7.99994 11.2091 7.99994 9C7.99994 6.79086 9.7908 5 11.9999 5C14.2091 5 15.9999 6.79086 15.9999 9Z" fill="#199AFE"/>
    <path d="M15.2499 9C15.2499 10.7949 13.7949 12.25 11.9999 12.25V13.75C14.6233 13.75 16.7499 11.6234 16.7499 9H15.2499ZM11.9999 12.25C10.205 12.25 8.74994 10.7949 8.74994 9H7.24994C7.24994 11.6234 9.37659 13.75 11.9999 13.75V12.25ZM8.74994 9C8.74994 7.20507 10.205 5.75 11.9999 5.75V4.25C9.37659 4.25 7.24994 6.37665 7.24994 9H8.74994ZM11.9999 5.75C13.7949 5.75 15.2499 7.20507 15.2499 9H16.7499C16.7499 6.37665 14.6233 4.25 11.9999 4.25V5.75Z" fill="#199AFE"/>
</svg>
